# xmcd
#
# Track frame offsets: 
#        150
#        17159
#        33418
#        49675
#        66888
#        84316
#        107756
#        129379
#        154178
#        168755
#        187069
#        202785
#        218904
#        236841
#        258767
#        275633
#        296219
#        317123
#
# Disc length: 4466 seconds
#
# Revision: 0
# Processed by: cddbd v1.5.2PL0 Copyright (c) Steve Scherf et al.
# Submitted via: ExactAudioCopyFreeDBPlugin 1.0
#
DISCID=03117012
DTITLE=Emmanuel - Mi historia
DYEAR=2005
DGENRE=Pop
TTITLE0=Tengo mucho que aprender de ti
TTITLE1=Con olor a hierba
TTITLE2=Es mi mujer
TTITLE3=Tú y yo
TTITLE4=Detenedla ya
TTITLE5=Todo se derrumbó dentro de mí
TTITLE6=Toda la vida
TTITLE7=La chica de humo
TTITLE8=Con qué derecho
TTITLE9=El día que puedas
TTITLE10=Seguía lloviendo afuera
TTITLE11=Ven con el alma desnuda
TTITLE12=Estoy loco
TTITLE13=No he podido verte
TTITLE14=Este terco corazón
TTITLE15=Que será
TTITLE16=Si ese tiempo pudiera volver
TTITLE17=Porque te vas
EXTD=
EXTT0=
EXTT1=
EXTT2=
EXTT3=
EXTT4=
EXTT5=
EXTT6=
EXTT7=
EXTT8=
EXTT9=
EXTT10=
EXTT11=
EXTT12=
EXTT13=
EXTT14=
EXTT15=
EXTT16=
EXTT17=
PLAYORDER=
